<?xml version="1.0" encoding="UTF-8"?>
<svg xmlns="http://www.w3.org/2000/svg" xmlns:xlink="http://www.w3.org/1999/xlink" version="1.1" viewBox="0 0 1637.7 291.3">
  <defs>
    <style>
      .cls-1, .cls-2 {
        fill: none;
      }

      .cls-3 {
        fill: #301534;
      }

      .cls-2 {
        stroke: #ad28eb;
        stroke-linecap: round;
        stroke-width: 3px;
      }

      .cls-4 {
        clip-path: url(#clippath);
      }
    </style>
    <clipPath id="clippath">
      <rect class="cls-1" width="1637.7" height="302.4"/>
    </clipPath>
  </defs>
  <!-- Generator: Adobe Illustrator 28.7.1, SVG Export Plug-In . SVG Version: 1.2.0 Build 142)  -->
  <g>
    <g id="Layer_1">
      <g class="cls-4">
        <path class="cls-3" d="M0,0h1703.1v302.4H0V0Z"/>
        <path class="cls-2" d="M-566-192.4C-344-29.9-286.9,47.5-87.5,115.2c98.5,33.4,160.6,25.7,192.7,25.1,104.5-1.9,204.6-40.9,298.6-80.8,38.4-16.3,75.9-34.2,112.1-54.5,23.9-13.4,58.9-32.1,64.7-60.9,2.3-11.4-16.4-11.6-23.8-9.3-13.5,4.2-26,15.6-36.1,24.3-19.1,16.3-37.1,34-53.2,53-33.7,39.6-68,94.7-34.2,143.7,17.3,25,43.9,43.2,72.1,55.9,56.2,25.3,119.2,36.6,180.8,41.7,164.4,13.6,329-3.3,483-60.1,79.8-29.4,158.6-66.7,224.2-119.3,48.6-38.9,102.8-91.2,110.7-154,10.9-87.1-94-128.6-169.3-140.3-61.4-9.5-123.8-3.9-184.1,9.1-78.3,16.9-149,45.1-214.2,89.2-130,88-235,215.9-272.5,364.6-15.6,62-16.6,130.6,5.5,191.4,21.5,58.9,69.2,104.5,124,137,65.1,38.5,137.2,58.7,212.8,69.2,100.5,13.9,202.8,11.6,303-2.8,176.2-25.3,352.7-83.6,505.2-171.1,103.2-59.3,199.3-126.8,280.1-212.1,17.7-18.7,31.8-38.6,43.7-61,143.6-268.9,67-351.2,67-356.3"/>
      </g>
    </g>
  </g>
</svg>